<?xml version="1.0" encoding="UTF-8"?>
<svg id="Layer_1" data-name="Layer 1" xmlns="http://www.w3.org/2000/svg" viewBox="0 0 1080 1080">
  <defs>
    <style>
      .cls-1 {
        fill: #fff;
      }

      .cls-2 {
        fill: #333;
      }
    </style>
  </defs>
  <rect class="cls-1" width="1080" height="1080"/>
  <g>
    <path class="cls-2" d="M341.17,363.52c80.08-93,115.94-180.46,127.65-213.75,16.92-48.12,27.86-98.5,32.53-149.77H0v609.24c154.61-85.3,251.79-141.91,341.17-245.71Z"/>
    <path class="cls-2" d="M387.58,1012.97c52.3-93.26,77.32-191.48,99.13-389.28,1.35-12.22,2.63-24.48,3.87-36.75-5.47,2.74-10.25,5.01-14.21,6.81-28.35,12.92-43.7,16.67-57.24,19.97-12.29,3-22.9,5.58-43.11,15.18-22.51,10.69-136.75,70.16-174.88,191.22-17.72,56.28-21.87,126.35,2.33,141.41,16.98,10.56,51.33-4.02,64.26-9.51,33.82-14.36,54.48-39.21,65.85-57.53,5.19-8.36,16.18-10.93,24.54-5.74,8.36,5.19,10.93,16.18,5.74,24.54-14.09,22.7-39.79,53.53-82.2,71.54-12.99,5.51-37.74,16.02-62.5,16.02-11.94,0-23.88-2.44-34.51-9.06-22.88-14.24-34.19-43.46-33.63-86.85.37-28.91,6.41-64.62,16.14-95.53,18.48-58.68,54.37-111.04,106.69-155.61,37.93-32.31,73.4-50.7,86.89-57.11,23.5-11.16,36.95-14.44,49.96-17.61,12.6-3.07,25.62-6.24,50.9-17.77,7.89-3.6,19.32-9.17,33.07-16.91,8.34-91.95,13.7-185,15.95-277.59.24-9.84,8.39-17.62,18.25-17.38,9.84.24,17.62,8.41,17.38,18.25-2.05,84.41-6.66,169.21-13.74,253.23,18.11-12.34,37.81-27.41,57.6-45.45,1.42-14.83,2.91-28.58,4.18-40.35,3.94-36.47,9.06-62.94,16.15-99.59,21.2-109.59,40.44-151.65,53.07-173.75,11.4-19.95,25.67-40.49,38.16-54.95,13.89-16.07,34.9-36.54,56.89-28.76,26.8,9.48,26.21,51.87,25.89,74.64-2.24,161.41-120.38,297.41-133.85,312.39-8.64,9.61-17.42,18.64-26.24,27.11-2.28,25.97-4.11,54.11-4.04,79.69.17,69.67,14.17,76,14.31,76.06.08.03,8.06,2.71,36.85-26.45,23.52-23.82,52.79-59.88,98.21-116.44,5.29-6.59,10.94-13.62,16.84-21,.67-34.56,8.82-72.27,22.39-102.77,30.23-67.94,93.51-115.15,125.69-121.82,12.8-2.65,20.46,1.37,24.63,5.21,5.17,4.76,10.23,13.83,4.94,30.01-2.17,6.63-6.02,14.73-11.78,24.76-9.42,16.41-23.73,37.71-43.75,65.1-26.7,36.54-59.07,77.65-86.29,111.75,1.07,26.77,7.67,47.46,18.47,53.15,5.39,2.84,22.65,6.06,66.33-25.3,43.68-31.36,101.77-88.83,172.83-170.95V0h-542.91c0,.4,0,.79-.04,1.19-4.84,54.9-16.48,108.86-34.6,160.4-15.37,43.72-53.26,131.1-134.26,225.18C271.39,499.18,168.2,557.31,0,649.93v430.07h344.84c15.45-21.47,29.82-43.98,42.75-67.03Z"/>
    <path class="cls-2" d="M898.34,320.98c-24.52,20.93-44.71,47.5-56.86,74.8-4.81,10.81-8.65,22.15-11.61,33.59,14.03-17.96,28.17-36.37,41.4-54.17,25.23-33.95,39.79-55.91,48.18-69.99-6.2,3.95-13.34,9.12-21.12,15.77Z"/>
    <path class="cls-2" d="M927.95,553.12c-44.62,32.03-78.54,41.15-103.73,27.88-15.28-8.05-26.3-24.14-32.35-46.65-42.97,53.46-71.33,88.18-95.04,112.19-22.59,22.88-49.2,44.88-75.32,34.55-15.02-5.93-25.1-20.45-30.84-44.36-3.98-16.58-5.94-37.76-6.01-64.75-.04-15,.54-30.74,1.46-46.37-20.51,16.32-40.24,29.65-57.66,40.27-1.96,20.64-4.07,41.22-6.33,61.72-22.41,203.18-48.52,304.82-103.47,402.8-9.46,16.86-19.66,33.45-30.45,49.6h691.78V407.21c-60.91,68.14-111.92,117.11-152.05,145.92Z"/>
    <path class="cls-2" d="M748.07,126.35c-.61-6.04-1.5-9.98-2.26-12.47-3.83,2.5-10.81,8.23-21.34,21.23-9.93,12.25-21.15,28.83-30.02,44.35-6.55,11.46-26.49,46.36-49.02,162.82-6.86,35.44-11.49,59.39-15.19,91.9,26.59-31.46,116.7-147.85,118.56-281.97.08-5.71.23-16.33-.74-25.86Z"/>
  </g>
</svg>