<?xml version="1.0" encoding="UTF-8"?>
<svg id="Layer_1" data-name="Layer 1" xmlns="http://www.w3.org/2000/svg" viewBox="0 0 1080 1080">
  <defs>
    <style>
      .cls-1 {
        fill: #1a1a1a;
      }
    </style>
  </defs>
  <path class="cls-1" d="M355.9,376.59c74.14-86.11,107.36-167.09,118.19-197.92,15.67-44.56,25.79-91.21,30.12-138.68H40v564.11c143.16-78.98,233.14-131.4,315.9-227.51Z"/>
  <path class="cls-1" d="M398.87,977.93c48.43-86.35,71.59-177.3,91.79-360.44,1.25-11.32,2.44-22.66,3.58-34.03-5.06,2.54-9.49,4.64-13.15,6.31-26.25,11.97-40.46,15.43-53,18.49-11.38,2.77-21.21,5.17-39.92,14.05-20.85,9.9-126.62,64.96-161.92,177.06-16.41,52.11-20.25,116.99,2.16,130.93,15.72,9.78,47.52-3.72,59.5-8.8,31.32-13.3,50.44-36.31,60.97-53.27,4.81-7.74,14.98-10.12,22.72-5.32,7.74,4.81,10.12,14.98,5.32,22.72-13.04,21.02-36.84,49.57-76.11,66.24-12.03,5.1-34.94,14.83-57.87,14.83-11.05,0-22.11-2.26-31.96-8.39-21.18-13.18-31.66-40.24-31.14-80.41.35-26.77,5.93-59.83,14.94-88.45,17.11-54.34,50.35-102.81,98.79-144.08,35.12-29.92,67.96-46.95,80.45-52.88,21.76-10.33,34.22-13.37,46.26-16.31,11.66-2.84,23.72-5.78,47.13-16.45,7.31-3.33,17.88-8.49,30.62-15.66,7.72-85.14,12.69-171.3,14.77-257.03.22-9.11,7.77-16.31,16.9-16.09,9.11.22,16.32,7.79,16.09,16.9-1.9,78.16-6.17,156.67-12.73,234.47,16.77-11.43,35.01-25.38,53.33-42.09,1.31-13.73,2.69-26.46,3.87-37.36,3.65-33.77,8.39-58.28,14.96-92.21,19.63-101.47,37.45-140.41,49.14-160.88,10.55-18.47,23.76-37.49,35.34-50.88,12.86-14.88,32.31-33.83,52.67-26.63,24.81,8.78,24.26,48.02,23.97,69.11-2.07,149.46-111.47,275.38-123.93,289.25-8,8.9-16.13,17.26-24.3,25.1-2.11,24.04-3.8,50.11-3.74,73.79.16,64.51,13.12,70.37,13.25,70.42.07.03,7.46,2.51,34.12-24.49,21.78-22.06,48.88-55.45,90.94-107.82,4.9-6.1,10.13-12.61,15.6-19.44.62-32,8.17-66.92,20.73-95.16,27.99-62.91,86.58-106.62,116.38-112.79,11.85-2.45,18.95,1.27,22.81,4.82,4.79,4.41,9.47,12.81,4.58,27.79-2,6.13-5.57,13.64-10.91,22.93-8.72,15.2-21.97,34.91-40.51,60.28-24.73,33.83-54.69,71.9-79.9,103.48.99,24.78,7.1,43.94,17.11,49.21,4.99,2.63,20.97,5.61,61.42-23.42,40.45-29.04,94.23-82.25,160.03-158.28V40h-502.7c0,.37,0,.73-.04,1.1-4.48,50.83-15.26,100.8-32.04,148.52-14.23,40.48-49.31,121.39-124.32,208.5-89.62,104.08-185.17,157.9-340.9,243.66v398.21h319.29c14.3-19.88,27.61-40.73,39.58-62.07Z"/>
  <path class="cls-1" d="M871.8,337.2c-22.7,19.38-41.4,43.98-52.65,69.26-4.45,10-8.01,20.51-10.75,31.1,13-16.63,26.08-33.67,38.34-50.16,23.36-31.43,36.84-51.77,44.61-64.8-5.74,3.66-12.35,8.45-19.55,14.6Z"/>
  <path class="cls-1" d="M899.21,552.15c-41.31,29.66-72.73,38.1-96.04,25.81-14.15-7.45-24.35-22.35-29.96-43.19-39.78,49.5-66.05,81.65-88,103.88-20.92,21.18-45.56,41.55-69.74,31.99-13.9-5.5-23.24-18.93-28.55-41.08-3.68-15.35-5.5-34.96-5.56-59.96-.03-13.89.5-28.46,1.35-42.94-18.99,15.11-37.26,27.46-53.39,37.29-1.82,19.11-3.76,38.16-5.86,57.14-20.75,188.13-44.93,282.24-95.81,372.97-8.76,15.61-18.2,30.98-28.2,45.92h640.54V417.04c-56.4,63.09-103.63,108.44-140.79,135.11Z"/>
  <path class="cls-1" d="M732.66,156.99c-.57-5.59-1.38-9.24-2.1-11.55-3.55,2.31-10.01,7.62-19.76,19.66-9.19,11.34-19.58,26.69-27.8,41.07-6.07,10.62-24.53,42.92-45.39,150.76-6.35,32.81-10.64,54.99-14.06,85.09,24.62-29.13,108.06-136.9,109.78-261.08.07-5.28.21-15.12-.68-23.94Z"/>
</svg>